<svg version="1.1" id="Layer_1" xmlns="http://www.w3.org/2000/svg" xmlns:xlink="http://www.w3.org/1999/xlink" x="0px" y="0px"
	 width="100%" viewBox="0 0 512 512" enable-background="new 0 0 512 512" xml:space="preserve">
<path fill="#000000" opacity="1.000000" stroke="none" 
	d="
M292.000000,513.000000 
	C194.690292,513.000000 97.880577,513.000000 1.035435,513.000000 
	C1.035435,342.398590 1.035435,171.797195 1.035435,1.097890 
	C171.559723,1.097890 342.119537,1.097890 512.839661,1.097890 
	C512.839661,171.666550 512.839661,342.333252 512.839661,513.000000 
	C439.463837,513.000000 365.981903,513.000000 292.000000,513.000000 
M425.624329,25.258713 
	C424.666046,24.983166 423.719452,24.654839 422.747772,24.439795 
	C399.292969,19.248962 375.337280,18.987070 351.530396,17.511045 
	C336.930969,16.605883 322.239197,16.752649 307.621765,16.671814 
	C270.325745,16.465563 233.020264,15.629121 195.708939,17.210970 
	C175.292938,18.076527 154.842072,17.686222 134.409531,19.222893 
	C116.165627,20.594967 98.124146,22.450287 80.371422,27.157003 
	C52.589672,34.522682 34.000793,51.245655 25.322592,78.886444 
	C18.845732,99.515785 17.044836,120.817665 15.369603,142.177933 
	C13.729205,163.094009 13.672382,184.094284 13.542549,205.012497 
	C13.312161,242.131958 12.580043,279.269989 14.168936,316.409698 
	C15.056383,337.153412 14.767548,357.938049 16.221703,378.696075 
	C17.325302,394.449890 19.125959,410.029541 22.478745,425.449677 
	C30.038332,460.217865 51.746208,480.621063 86.016342,488.568604 
	C111.059402,494.376282 136.631927,494.926453 162.086838,496.524048 
	C176.188095,497.409027 190.375137,497.218445 204.485016,497.319824 
	C242.273346,497.591339 280.073486,498.391479 317.880615,496.818878 
	C338.625336,495.955994 359.407349,496.204590 380.164734,494.778931 
	C394.586578,493.788483 408.904938,492.401245 423.045959,489.506622 
	C436.798187,486.691589 450.083984,482.460388 461.639130,474.131439 
	C477.404724,462.767548 485.795258,446.732178 490.686493,428.345642 
	C497.532349,402.611511 497.853516,376.172302 499.528961,349.892639 
	C500.406616,336.127045 500.232605,322.273163 500.330688,308.498596 
	C500.594971,271.378601 501.535095,234.246292 499.807098,197.108200 
	C498.857178,176.691788 499.421356,156.228714 497.826202,135.785568 
	C496.597900,120.044350 495.151825,104.401421 491.568176,89.031952 
	C482.682770,50.924618 461.362640,32.921970 425.624329,25.258713 
z"/>
<path fill="#000000" opacity="1.000000" stroke="none" 
	d="
M110.001053,147.519897 
	C118.500702,147.569641 126.541443,147.132172 134.487839,147.806488 
	C142.141693,148.455963 148.451279,146.290619 154.180023,141.539398 
	C158.024841,138.350647 161.982315,135.296341 165.793732,132.068924 
	C180.373642,119.723007 198.110580,113.786797 215.730194,107.799515 
	C229.474304,103.129158 243.662598,100.733406 258.312897,100.363770 
	C278.108246,99.864334 295.725891,105.609947 311.769165,116.738930 
	C319.292572,121.957771 326.382050,127.806511 333.949127,132.957016 
	C347.273682,142.026352 354.591614,141.617157 367.438538,131.881348 
	C377.179901,124.499039 385.358002,115.451492 394.086517,106.996132 
	C406.792694,94.687607 411.074890,94.486046 422.392792,107.851852 
	C439.592804,128.164047 454.258942,150.096024 462.942383,175.566849 
	C463.848816,178.225662 465.137665,180.752365 466.204010,183.358795 
	C468.646301,189.328369 465.511963,194.809189 464.317902,200.314789 
	C457.667969,230.977051 448.771912,260.904419 433.364197,288.506561 
	C413.985168,323.223175 385.831146,349.506897 353.279236,371.514679 
	C339.745636,380.664429 325.542755,388.662201 310.999115,396.108856 
	C307.119507,398.095337 303.017242,398.325134 299.041992,399.162933 
	C290.433655,400.977142 281.695282,402.290863 272.953064,403.329071 
	C255.046387,405.455627 238.529404,401.525116 223.827545,390.898468 
	C220.904587,388.785797 218.522720,389.914124 215.970322,391.211487 
	C204.726776,396.926483 192.921677,401.044037 180.293182,401.686005 
	C170.569183,402.180328 161.208694,400.542694 155.329819,391.307312 
	C154.366058,389.793304 153.632858,388.056854 153.154831,386.323456 
	C151.726746,381.144806 153.154205,377.210999 156.842285,375.586212 
	C160.711121,373.881714 164.418915,375.154022 167.151764,379.943024 
	C170.162476,385.218964 174.933197,385.954895 180.032120,385.513245 
	C189.244904,384.715210 197.859344,381.678406 206.255356,377.852356 
	C209.879364,376.200928 208.649887,374.007019 207.513626,371.799835 
	C197.301575,351.962830 211.062378,331.667267 225.761993,326.624969 
	C230.454636,325.015320 235.211395,323.325928 240.371613,324.272675 
	C255.897186,327.121155 262.153931,340.507629 255.439346,356.499878 
	C252.272751,364.041840 247.363800,370.235168 241.095184,375.422699 
	C239.720093,376.560638 237.895065,377.285828 237.205383,379.498077 
	C239.735031,382.807007 243.742737,383.598419 247.395844,384.925659 
	C259.997192,389.503815 272.632111,386.460907 285.401703,385.561249 
	C303.150879,384.310699 316.947968,374.659821 331.242218,366.110901 
	C361.990845,347.721100 389.147400,325.140686 409.837311,295.490387 
	C423.409851,276.039825 432.440460,254.445358 439.386932,231.902573 
	C439.761078,230.688400 440.302307,229.361679 439.192047,227.774658 
	C431.051605,230.859756 422.901459,234.093002 414.135559,235.476227 
	C394.991730,238.496964 378.547577,227.710129 373.623566,209.017929 
	C370.791687,198.267746 371.530884,187.641174 372.987885,176.848541 
	C374.497040,165.669754 377.407806,154.834671 380.723175,143.637589 
	C377.342255,144.137833 375.531647,146.239594 373.422882,147.673248 
	C358.140594,158.063034 342.657318,158.399139 327.240479,148.076523 
	C319.360474,142.800308 311.906647,136.890259 304.218781,131.323868 
	C286.149078,118.240540 266.277802,113.974510 244.170090,117.680496 
	C221.133789,121.542152 199.402283,129.055069 180.286102,142.059860 
	C159.702850,156.062714 143.414551,174.657990 131.839111,196.982346 
	C130.553192,199.462341 130.054810,202.339005 129.029526,204.968704 
	C127.680649,208.428360 125.078697,210.498032 121.328445,210.065002 
	C117.634598,209.638458 115.407951,207.143890 114.749527,203.491882 
	C113.954224,199.080704 114.906860,194.887680 116.724159,190.858002 
	C119.956657,183.690292 124.055618,177.043396 128.706467,170.713623 
	C130.048584,168.887024 131.748230,167.216217 132.342316,164.794189 
	C129.496399,163.281113 126.642990,163.492630 123.861862,163.482895 
	C110.029228,163.434448 96.192055,163.226898 82.364769,163.497864 
	C67.468964,163.789780 53.154144,162.136475 39.880867,152.612274 
	C41.239605,165.514404 44.197098,177.073578 48.714264,188.128067 
	C60.060341,215.894424 74.980568,241.564178 94.679642,264.330902 
	C99.643211,270.067413 100.224205,275.126251 96.576180,278.493469 
	C92.821030,281.959564 87.728920,280.792206 82.353966,274.926880 
	C67.945076,259.203369 57.275475,240.933899 46.861137,222.494080 
	C39.216251,208.957932 33.019547,194.789917 28.805416,179.834869 
	C26.008236,169.908249 23.696312,159.824692 24.645592,149.350250 
	C25.657387,138.185989 34.346230,131.505188 44.836571,133.693741 
	C47.130604,134.172348 49.409573,135.187531 49.882366,137.277924 
	C51.425083,144.098785 57.134739,144.416656 62.177422,145.572449 
	C76.315140,148.812881 90.700912,147.415665 105.003197,147.521713 
	C106.502335,147.532837 108.001648,147.520386 110.001053,147.519897 
M389.377594,175.888824 
	C388.616852,183.669846 387.584991,191.421509 388.259949,199.289749 
	C389.544220,214.260849 399.109039,221.785187 413.817230,218.987961 
	C425.294678,216.805206 435.576904,211.797241 445.010742,204.998260 
	C445.924805,204.339523 447.122040,203.427231 447.285919,202.477112 
	C448.516052,195.344437 455.132874,188.259796 447.707672,180.955856 
	C447.496429,180.748062 447.485321,180.336685 447.381287,180.020096 
	C440.187744,158.124329 426.299561,140.101044 413.480591,121.462173 
	C412.838593,120.528770 412.156006,119.513153 410.022247,119.187675 
	C399.979431,136.454330 393.224030,155.164322 389.377594,175.888824 
M229.395721,363.830566 
	C234.801697,359.481873 239.289307,354.439392 241.208237,347.583832 
	C242.485077,343.022247 240.620895,340.393799 236.410843,340.544220 
	C226.806091,340.887329 218.259659,352.321106 220.908707,361.463440 
	C222.394135,366.589905 223.962341,369.010559 229.395721,363.830566 
z"/>
<path fill="#000000" opacity="1.000000" stroke="none" 
	d="
M235.823257,193.435013 
	C235.777817,190.858521 235.642532,188.688004 235.879089,186.558807 
	C236.099411,184.575851 236.864273,182.728470 238.348724,181.241638 
	C243.515472,176.066620 258.864838,176.998978 263.249908,182.778336 
	C268.298126,189.431686 267.371094,200.256927 261.307068,205.465134 
	C255.833466,210.166245 247.613525,209.026291 241.207855,202.703766 
	C238.675598,200.204361 236.810379,197.321472 235.823257,193.435013 
z"/>
<path fill="#000000" opacity="1.000000" stroke="none" 
	d="
M353.325623,288.484375 
	C356.483704,282.608337 359.531891,281.628510 364.755859,284.216888 
	C373.270782,288.435913 382.138123,290.534088 391.740570,288.893311 
	C399.543610,287.559937 403.440979,290.272339 403.412476,296.329987 
	C403.395935,299.848297 401.479767,301.751648 398.585785,303.197784 
	C392.275269,306.351105 385.512512,305.864624 378.987244,304.986267 
	C372.085602,304.057281 365.423462,301.690247 359.213501,298.358032 
	C355.448242,296.337677 353.019287,293.403046 353.325623,288.484375 
z"/>
<path fill="#000000" opacity="1.000000" stroke="none" 
	d="
M404.684753,183.033203 
	C402.147797,176.545166 401.684052,170.034531 400.907410,163.624268 
	C400.164124,157.489120 403.118439,153.165955 408.668793,151.294724 
	C414.130219,149.453476 419.121399,151.229218 422.464294,156.311905 
	C424.736206,159.766220 427.512451,163.055496 428.979340,166.838791 
	C432.310303,175.429749 430.332703,183.960815 426.363251,191.769012 
	C423.316803,197.761597 414.990509,198.034912 410.151367,192.899628 
	C407.602020,190.194290 406.058044,186.867340 404.684753,183.033203 
z"/>
</svg>